<svg width="27" height="25" viewBox="0 0 27 25" fill="none" xmlns="http://www.w3.org/2000/svg">
<path d="M17.145 2.08334H12.7643C10.7798 2.08334 9.207 2.08334 7.97738 2.23751C6.71063 2.39584 5.68575 2.72918 4.878 3.48022C4.06913 4.23126 3.71025 5.18438 3.54038 6.36147C3.375 7.50522 3.375 8.96668 3.375 10.8115V16.8927C3.375 18.4636 4.41 19.8094 5.88038 20.374C5.805 19.4261 5.805 18.0979 5.805 16.9917V11.7729C5.805 10.4386 5.805 9.28751 5.93775 8.36668C6.08063 7.37918 6.40238 6.43334 7.22813 5.66564C8.05388 4.89793 9.072 4.59897 10.134 4.46564C11.124 4.34272 12.3615 4.34272 13.7981 4.34272H17.2519C18.6874 4.34272 19.9226 4.34272 20.9138 4.46564C20.6169 3.76386 20.0985 3.1612 19.4262 2.73624C18.754 2.31129 17.959 2.08377 17.145 2.08334Z" fill="#F4AD5E"/>
<path d="M7.42499 11.8719C7.42499 9.03231 7.42499 7.61251 8.37449 6.73022C9.32286 5.84793 10.8495 5.84793 13.905 5.84793H17.145C20.1994 5.84793 21.7271 5.84793 22.6766 6.73022C23.6261 7.61251 23.625 9.03231 23.625 11.8719V16.8927C23.625 19.7323 23.625 21.1521 22.6766 22.0344C21.7271 22.9167 20.1994 22.9167 17.145 22.9167H13.905C10.8506 22.9167 9.32286 22.9167 8.37449 22.0344C7.42499 21.1521 7.42499 19.7323 7.42499 16.8927V11.8719Z" fill="#F4AD5E"/>
</svg>
