<svg width="26" height="25" viewBox="0 0 26 25" fill="none" xmlns="http://www.w3.org/2000/svg">
<path d="M19.7795 3.65418C19.928 3.71331 20.0549 3.81346 20.1441 3.94196C20.2334 4.07045 20.2811 4.22152 20.2811 4.37605V8.79584C20.2811 9.00304 20.1954 9.20176 20.0431 9.34827C19.8907 9.49478 19.684 9.57709 19.4686 9.57709H14.872C14.7114 9.57696 14.5544 9.53106 14.4209 9.44521C14.2875 9.35936 14.1834 9.23739 14.122 9.09472C14.0606 8.95205 14.0445 8.79508 14.0758 8.64362C14.107 8.49216 14.1843 8.35302 14.2978 8.24376L16.0333 6.57293C14.4391 5.93103 12.6693 5.81265 10.998 6.23615C9.32677 6.65965 7.84746 7.60138 6.78936 8.91537C5.73126 10.2294 5.15345 11.8423 5.14548 13.5041C5.13751 15.1659 5.69983 16.7838 6.74529 18.1072C7.79074 19.4305 9.26096 20.3853 10.9281 20.8236C12.5952 21.2619 14.3661 21.1592 15.9664 20.5315C17.5666 19.9037 18.9069 18.786 19.7794 17.3515C20.6519 15.9169 21.008 14.2457 20.7924 12.5969C20.7701 12.3935 20.8316 12.1898 20.9637 12.0295C21.0958 11.8693 21.2881 11.7652 21.4991 11.7397C21.7101 11.7142 21.9231 11.7693 22.0924 11.8932C22.2617 12.017 22.3737 12.1997 22.4044 12.4021C22.6681 14.4189 22.2231 16.4627 21.14 18.2084C20.057 19.9541 18.3982 21.3016 16.4273 22.0367C14.4563 22.7718 12.2864 22.8523 10.2624 22.2654C8.23839 21.6785 6.47651 20.4579 5.25683 18.7976C4.03716 17.1373 3.42968 15.1327 3.53097 13.1023C3.63227 11.0719 4.43652 9.13234 5.81588 7.59194C7.19524 6.05153 9.07053 4.99868 11.1437 4.60077C13.2168 4.20286 15.3688 4.48271 17.2575 5.39584L18.8933 3.82293C19.007 3.71384 19.1517 3.63959 19.3092 3.60956C19.4668 3.57952 19.6311 3.59505 19.7795 3.65418Z" fill="#F4AD5E"/>
</svg>
